<svg id="Layer_1" data-name="Layer 1" xmlns="http://www.w3.org/2000/svg" viewBox="0 0 100 100"><path d="M95,78.15v1.61H75.33V78.25a9,9,0,0,0,1.92-.53,3,3,0,0,0,1.34-3.22c-.29-1.66-1.33-2.89-2.2-4.21-1.37-2.06-2.82-4.05-4.24-6.06l-7-9.81-3-4.34a5.28,5.28,0,0,0-.06.55c0,7,0,14,0,21a8.77,8.77,0,0,0,.65,4.23,4.18,4.18,0,0,0,3.69,2.28H68V79.8h-.69q-30.39,0-60.8,0c-.65,0-.82-.18-.83-.83,0-1.88-.15-3.75-.25-5.63-.07-1.45-.16-2.89-.25-4.34,0-.76-.12-1.52-.18-2.38.59,0,1.1,0,1.6,0,.14,0,.33.23.38.39a22.55,22.55,0,0,0,1.94,5.64,6.36,6.36,0,0,0,3.78,3,22,22,0,0,0,6.61.78H38.1v-.73q0-12.39,0-24.79c0-.64-.16-.83-.82-.83-4.84,0-9.68,0-14.52,0a14.22,14.22,0,0,0-5.71,1,5.68,5.68,0,0,0-3.35,4.18c-.26,1.21-.49,2.43-.74,3.68H11.12V58.3c0-6.43,0-12.86,0-19.29,0-.64.19-.86.81-.79a7.55,7.55,0,0,0,.94,0c.3,1.35.5,2.64.86,3.89a5.68,5.68,0,0,0,4.74,4.36,22.28,22.28,0,0,0,3.54.38c5.07,0,10.15,0,15.23,0h.72V23.41c-.21,0-.41,0-.62,0-6.71,0-13.43-.05-20.14,0A10.48,10.48,0,0,0,10.9,25a7.11,7.11,0,0,0-2.6,3.39c-.55,1.54-1,3.13-1.46,4.74H5l.12-1.84c0-.08,0-.16,0-.25,0-1.19.07-2.39.13-3.59.14-2.42.3-4.84.45-7.3H68v1.45a19.17,19.17,0,0,0-2.13.2,4,4,0,0,0-3.5,3.8c-.56,7.63-.12,15.28-.25,22.92,0,.06,0,.11.06.24,1.25-1.66,2.47-3.27,3.67-4.88,1.71-2.28,3.46-4.54,5.09-6.87,1.93-2.74,3.77-5.53,5.61-8.33A10.21,10.21,0,0,0,78,25.18c.4-1.88-.44-3.37-2.63-3.47-.3,0-.6,0-.95,0V20.2H89.57v1.48c-.4.07-.83.13-1.26.22a8,8,0,0,0-3.4,1.86A29.51,29.51,0,0,0,79.57,30c-2.82,4.09-5.62,8.2-8.45,12.29-.89,1.29-1.8,2.55-2.75,3.8a.88.88,0,0,0,0,1.2q2.94,4.13,5.83,8.28c2.74,3.92,5.44,7.87,8.2,11.77a45.31,45.31,0,0,0,6.38,7.83A11,11,0,0,0,95,78.15ZM51.18,23.41v53h5v-53Zm-7.62,0v53H48.4v-53Z"/></svg>